<svg width="877" height="115" viewBox="0 0 877 115" fill="none" xmlns="http://www.w3.org/2000/svg">
<path d="M58 58H867" stroke="#ED0F7E" stroke-width="2" stroke-linecap="round"/>
<circle cx="458" cy="58" r="50" fill="#ED0F7E"/>
<circle cx="458" cy="58" r="45" fill="white"/>
<path d="M448.563 68.934C452.119 66.078 454.905 63.74 456.921 61.92C458.937 60.072 460.631 58.154 462.003 56.166C463.403 54.15 464.103 52.176 464.103 50.244C464.103 48.424 463.655 46.996 462.759 45.96C461.891 44.896 460.477 44.364 458.517 44.364C456.613 44.364 455.129 44.966 454.065 46.17C453.029 47.346 452.469 48.928 452.385 50.916H448.689C448.801 47.78 449.753 45.358 451.545 43.65C453.337 41.942 455.647 41.088 458.475 41.088C461.359 41.088 463.641 41.886 465.321 43.482C467.029 45.078 467.883 47.276 467.883 50.076C467.883 52.4 467.183 54.668 465.783 56.88C464.411 59.064 462.843 60.996 461.079 62.676C459.315 64.328 457.061 66.26 454.317 68.472H468.765V71.664H448.563V68.934Z" fill="#233774"/>
<circle cx="58" cy="58" r="10" fill="#ED0F7E"/>
<circle cx="867" cy="58" r="10" fill="#ED0F7E"/>
</svg>
