<svg width="917" height="115" viewBox="0 0 917 115" fill="none" xmlns="http://www.w3.org/2000/svg">
<path d="M58 58H867" stroke="#ED0F7E" stroke-width="2" stroke-linecap="round"/>
<circle cx="867" cy="58" r="50" fill="#ED0F7E"/>
<circle cx="867" cy="58" r="45" fill="white"/>
<path d="M857.654 49.278C857.85 46.702 858.844 44.686 860.636 43.23C862.428 41.774 864.752 41.046 867.608 41.046C869.512 41.046 871.15 41.396 872.522 42.096C873.922 42.768 874.972 43.692 875.672 44.868C876.4 46.044 876.764 47.374 876.764 48.858C876.764 50.594 876.26 52.092 875.252 53.352C874.272 54.612 872.984 55.424 871.388 55.788V55.998C873.208 56.446 874.65 57.328 875.714 58.644C876.778 59.96 877.31 61.682 877.31 63.81C877.31 65.406 876.946 66.848 876.218 68.136C875.49 69.396 874.398 70.39 872.942 71.118C871.486 71.846 869.736 72.21 867.692 72.21C864.724 72.21 862.288 71.44 860.384 69.9C858.48 68.332 857.416 66.12 857.192 63.264H860.888C861.084 64.944 861.77 66.316 862.946 67.38C864.122 68.444 865.69 68.976 867.65 68.976C869.61 68.976 871.094 68.472 872.102 67.464C873.138 66.428 873.656 65.098 873.656 63.474C873.656 61.374 872.956 59.862 871.556 58.938C870.156 58.014 868.042 57.552 865.214 57.552H864.248V54.36H865.256C867.832 54.332 869.778 53.912 871.094 53.1C872.41 52.26 873.068 50.972 873.068 49.236C873.068 47.752 872.578 46.562 871.598 45.666C870.646 44.77 869.274 44.322 867.482 44.322C865.746 44.322 864.346 44.77 863.282 45.666C862.218 46.562 861.588 47.766 861.392 49.278H857.654Z" fill="#233774"/>
<circle cx="458" cy="58" r="10" fill="#ED0F7E"/>
<circle cx="58" cy="58" r="10" fill="#ED0F7E"/>
</svg>
